<svg width="243" height="778" viewBox="0 0 243 778" fill="none" xmlns="http://www.w3.org/2000/svg">
<rect width="243" height="778" fill="white"/>
<path id="outer body" d="M90 23.5L88 54C79.7842 52.9505 80.9917 58.6204 82 67.5C84.5 75.3421 86.412 78.4512 92 78.5L92.5 115.5C62.0711 128.972 44.9886 136.659 13.5 156.5C1.91387 164.826 0.231445 173.19 1 191L6 215L4 344L14 402.5C11.5661 420.061 9.67511 429.916 6 447.5C8.53325 459.81 11.1024 466.504 26.5 476.5C30.7878 477.034 33.0389 476.495 36.5 472.5C31.2989 464.589 30.181 458.989 30.5 447.5C34.7092 457.188 36.8439 461.106 39 457L36.5 443L32.5 398.5C35.5738 368.981 37.1134 352.24 39.5 322C38.4966 287.173 36.4873 265.305 46 247.5C52.0187 261.573 54.3446 285.098 59 319.5C47.0592 365.408 43.6843 393.62 50.5 453.5C46.655 464.188 55.5179 496.942 75.5 565.5C70.601 594.683 67.6376 610.868 70 646C80.0164 682.68 86.6388 702.262 92.5 743C92.0635 749.199 90.6599 753.151 85 761.5V771.5C97.3106 777.314 104.422 779.317 119 771.5V761.5C114.726 727.55 113.823 708.504 117 674.5V627V567C117.678 514.94 120.188 485.906 123 434V474.5L125.5 565.5V650C127.129 689.642 127.769 711.868 123.5 751.5C122.819 760.401 123.347 764.906 127 771.5C138.022 779.203 154.419 780.09 160.5 767.5L151.5 751.5C148.674 731.262 153.748 709.465 170.5 658.5C171.934 618.072 170.911 595.412 168 555L183.5 516C194.714 476.756 195.903 453.615 196.5 412C195.506 377.143 192.626 358.543 183.5 327C187.461 297.478 187.928 279.914 199 254.5C201.899 262.49 202.231 272.423 202.5 291.5C201.809 313.526 201.354 325.719 202.5 352C209.095 373.661 210.777 384.618 213.5 404L202.5 438C200.107 446.451 198.796 451.194 199 460C200.143 460.815 201.259 460.332 204.5 457C206.844 453.619 208.156 453.536 210.5 457L206.5 474.5C206.517 478.914 209.064 480.235 216 481.5C222.161 477.503 225.363 474.955 229.5 468.5C232.231 462.531 233.093 458.897 232.5 451.5V425.5L235 398.5L241 349C241.887 335.802 242.229 328.271 239.5 312C238.509 303.368 237.418 298.42 235 289.5C236.01 280.614 236.91 275.326 239.5 265C240.193 259.141 240.57 255.551 241 243C238.946 233.977 237.703 228.808 235 219L239.5 195C240.376 178.168 242.003 168.337 228.5 156.5C221.2 151.326 216.093 148.358 206 143C176.597 129.278 151.39 119.1 150.5 113.5L153 77C159.975 73.7008 162.393 71.135 164.5 65.5C167.289 55.0441 167.366 50.3315 159 48.5C159.944 39.1447 159.825 33.762 156.5 23.5C152.388 13.407 148.328 8.60081 136 2.5C126.233 0.495017 120.484 0.0753171 109 2.5C99.753 7.3319 95.7841 12.2824 90 23.5Z" stroke="black"/>
<path id="Vector 1" d="M93 115.5L122.5 80.5M122.5 80.5L149.5 115.5L176.5 129L120.5 145.5M122.5 80.5L120.5 145.5M120.5 145.5L64.5 129M120.5 145.5C140.024 147.891 155.477 152.232 169 159.03M120.5 145.5C101.832 147.087 86.7664 151.071 73 158.01M120.5 145.5L114.82 239M120.5 145.5L126.365 239M6 218C16.7428 205.6 26.3282 195.022 35.5 186.084M234.5 221C224.42 208.14 215.391 197.181 206.5 187.908M169 159.03L149.635 195.352M169 159.03C177.22 163.162 184.726 168.202 192 174.263M73 158.01L93.91 198.505M73 158.01C65.576 161.753 58.5298 166.355 51.5 171.905M114.82 239L120.5 250L126.365 239M114.82 239L93.91 198.505M114.82 239C102.538 267.56 96.6828 288.448 88 334M126.365 239L149.635 195.352M126.365 239C140.646 274.879 151.373 303.187 154 331M93.91 198.505C83.968 197.778 75.9219 196.865 68 195.352M35.5 186.084C48.432 190.645 58.1194 193.465 68 195.352M35.5 186.084C40.9267 180.796 46.2087 176.082 51.5 171.905M35.5 186.084C44.4447 211.051 46.3186 224.412 46 247.5M68 195.352L51.5 171.905M149.635 195.352C156.492 197.491 162.666 198.466 171 197.541M206.5 187.908C201.675 182.875 196.89 178.338 192 174.263M206.5 187.908C190.354 193.646 179.542 196.592 171 197.541M206.5 187.908C196.913 209.829 192.811 222.939 199 255M192 174.263L171 197.541M88 334C73.1167 315.088 65.8614 303.405 54 281.5M88 334C110.478 352.024 115.451 363.91 120.5 386M88 334C70.627 357.494 61.6765 375.857 46 410.5M154 331C174.436 314.334 183.068 297.033 190 281.5M154 331V334M6 271C13.643 265.911 17.9095 265.153 25.5 266C29.9255 273.471 33.1271 275.329 39.5 276.5M202.5 274C213.576 278.767 217.449 278.393 221.5 274C225.735 262.471 229.594 262.405 238.5 271M120.5 386C132.361 359.001 154 334 154 334M120.5 386V415M154 334C154 334 184.857 384.431 196.5 417M120.5 415C117.887 417.816 115.433 420.119 113 421.912M120.5 415C124.05 417.75 127.286 420.072 130.392 421.912M166.5 421C160.346 424.074 155.171 425.877 150.5 426.55M79.5 421C84.8813 423.483 89.4508 425.158 93.5 426.014M113 421.912L122 434.5L130.392 421.912M113 421.912C110.687 423.618 108.393 424.863 106 425.653M130.392 421.912C132.125 422.939 133.817 423.815 135.5 424.532M93.5 426.014C83.1835 436.019 79.3454 445.136 74.5 465C71.1867 488.169 68.4164 499.274 61.5 515M93.5 426.014C98.2199 427.011 102.233 426.897 106 425.653M150.5 426.55C164.027 441.94 168.622 452.769 171.5 476C174.301 493.873 176.68 502.909 183 516.5M150.5 426.55C145.071 427.331 140.321 426.586 135.5 424.532M106 425.653C102.619 466.787 97.7613 502.239 91.863 528M74.5 570.5C77.0883 568.397 79.5947 564.673 82.0005 559.5M135.5 424.532C141.922 465.946 147.096 499.232 151.797 523.5M169 570.5C166.21 570.55 163.596 567.087 161 560.294M91.863 528C96.6142 541.672 100.369 551.355 104.607 559.5M91.863 528C88.8309 541.243 85.5237 551.925 82.0005 559.5M117 578C111.973 571.959 108.124 566.259 104.607 559.5M151.797 523.5C147.739 542.266 144.113 553.919 139.362 562.5M151.797 523.5C155.003 540.056 157.989 552.415 161 560.294M126.5 578C131.799 573.423 135.882 568.785 139.362 562.5M104.607 559.5C98.4657 558.088 94.202 557.528 89.5 558.013M82.0005 559.5C84.7872 558.738 87.1962 558.25 89.5 558.013M139.362 562.5C145.734 558.494 149.959 557.131 154.641 558.013M161 560.294C158.669 559.155 156.614 558.384 154.641 558.013M89.5 558.013C91.6783 587.401 93.9678 609.333 97.6468 627.5M117 679.5C107.617 663.433 101.763 647.823 97.6468 627.5M97.6468 627.5C96.2935 655.334 95.3586 670.387 91.863 691.5M91.863 691.5L70 642.5M91.863 691.5L101.5 746C108.598 748.181 111.647 746.418 117 743M154.641 558.013C151.631 584.658 148.819 604.883 144.478 624.5M127.5 681C135.299 659.741 140.523 642.373 144.478 624.5M144.478 624.5C146.439 650.665 147.539 665.335 149.5 691.5M171 651C152.335 674.676 145.769 697.33 139.362 750.5C133.319 751.494 130.079 749.614 124.5 743M11 417C19.2891 418.471 24.1281 414.284 33 400.5M202.5 339C207.914 327.196 211.398 322.169 221.5 327C231.219 324.132 234.671 321.345 238.5 315M214.5 404L231.5 421" stroke="black"/>


<path id="back traps" d="M120.5 142.5L70 128L96 116L122.5 86L147.5 117.5L168.5 128L120.5 142.5Z" fill="#D9D9D9" fill-opacity="0.4" stroke="black"/>

<g class="hover" id="shoulder-back">
    <path id="left back sholder" d="M108 144L63.5 131C42.11 141.373 30.0782 148.477 8.5 165C1.25141 179.554 2.30887 190.124 8.5 211C45.2353 167.78 66.9291 152.372 108 144Z" fill="#D9D9D9" fill-opacity="0.4" stroke="black"/>

    <path id="right back sholder" d="M175.5 132L133 144.5C181.828 156.914 203.438 173.207 233.5 216C238.345 188.735 243.543 172.336 224 156C205.704 145.936 195.359 140.387 175.5 132Z" fill="#D9D9D9" fill-opacity="0.4" stroke="black"/>
</g>

<g class="hover" id="back-inner">
    <path id="inner back" d="M120 244.5L76 158C111.562 144.278 131.177 144.145 165.5 159.5L120 244.5Z" fill="#D9D9D9" fill-opacity="0.4" stroke="black"/>
</g>

<g class="hover" id="arms-back">
    <path id="left back triceps" d="M8 219L35 190C41.123 212.521 42.5157 224.732 42.5 246C35.7627 255.641 35.5518 260.429 35 269C34.7251 272.241 33.5003 271.825 26 260C18.2708 261.239 13.9708 262.315 6.5 266.5L8 219Z" fill="#D9D9D9" fill-opacity="0.4" stroke="black"/>

    <path id="right back triceps" d="M232.5 222L207.5 193C198.471 211.351 197.063 224.234 202 252.5L206 272C211.012 273.929 213.397 273.863 217 272C220.659 269.47 221.847 266.39 223.5 260C232.95 262.203 235.079 263.86 237.5 267C238.994 248.838 239.325 238.741 232.5 222Z" fill="#D9D9D9" fill-opacity="0.4" stroke="black"/>

</g>

<g class="hover" id="back-outer">

    <path id="outer back" d="M72 163.5L39.5 190V192C46.7319 213.91 49.7746 226.36 49.5 249.5L58 281L88.5 330C113.972 351.14 117.42 362.949 120.5 384C129.613 357.545 137.266 346.152 154 330C168.312 310.674 175.366 300.31 184.5 283.5L195.5 254.5C193.878 243.722 193.137 237.636 189 227.5C195.119 212.274 197.685 204.331 202.5 190L170 163.5L120.5 257.5L72 163.5Z" fill="#D9D9D9" fill-opacity="0.4" stroke="black"/>

</g>

<g class="hover" id="butt">
    <path id="glutes" d="M88 338C73.0675 360.544 64.7517 376.466 50 409.5C51.3144 446.79 53.3439 467.857 61.5 506C66.7977 488.054 69.1209 477.03 71 454L84.5 428.5L74.5 420C97.1596 422.041 107.414 420.795 120.5 413.5C142.029 422.42 153.089 423.142 171 420C166.528 424.477 163.267 426.111 157 428.5C165.297 436.831 168.65 442.776 174 454C175.161 482.248 177.537 492.838 183 508C189.698 482.562 191.629 460.796 193.5 415.5C180.105 387.617 171.728 370.967 154 338C140.192 354.665 132.999 367.058 120.5 391C113.194 367.76 106.993 355.724 88 338Z" fill="#D9D9D9" fill-opacity="0.4" stroke="black"/>
</g>

<g class="hover" id="legs-back">
<path id="hemstring" d="M77 466C82.6394 446.818 86.4157 439.093 94 429.5C106.054 430.422 111.75 427.671 121.5 421.5C130.736 427.296 137.269 428.964 151 429.5L151.088 429.653C162.834 450.055 169.446 461.54 165 466C169.01 493.231 172.715 502.888 180 517.5L162.5 554.5C152.059 551.695 146.265 552.411 136 556.5L128.5 566C127.33 522.727 126.991 484.245 121.5 434.5L112.5 566L105.5 554.5C94.3658 552.657 88.1252 552.705 77 556.5L64 515.5C71.7206 499.334 75.1236 489.163 77 466Z" fill="#D9D9D9" fill-opacity="0.4" stroke="black"/>

<path id="left back calf" d="M84.5 563C82.5263 567.74 81.26 569.095 79 571.5C72.4075 591.702 72.2198 608.758 73 641L95.5 688L104.5 739.5H111.5C110.691 715.303 110.704 701.389 113.5 674.5V577.5C108.809 573.961 106.052 571.626 99.5 563C95.1852 562.227 93.1716 561.591 84.5 563Z" fill="#D9D9D9" fill-opacity="0.4" stroke="black"/>

<path id="right back calf" d="M141 566L130.5 580.5C130.36 644.601 129.357 678.916 127.5 740C131.803 744.747 133.942 745.757 137.5 746C141.83 703.733 145.144 680.632 167.5 650.5L165 572.5L156.5 563C150.737 560.65 147.318 561.61 141 566Z" fill="#D9D9D9" fill-opacity="0.4" stroke="black"/>
</g>
</svg>
