<svg width="244" height="769" viewBox="0 0 244 769" fill="none" xmlns="http://www.w3.org/2000/svg">
<rect width="244" height="769" fill="white"/>
<path id="Vector 2" d="M101.5 103.5C109.381 120.69 112.387 130.451 116 148M120 148C122.711 129.153 125.731 118.776 133 100.5M86.5 108.5L87.5 122.5C91.2047 130.844 93.6134 134.42 98 140.5L114.5 149C117.743 149.385 119.422 149.551 120 149C120.517 148.82 121.017 148.644 121.5 148.471M138 140.5C144.485 131.246 146.938 126.753 150 119.5C150.712 114.343 150.982 111.483 151 106.5M138 140.5L152.5 123.5L157 110.5M138 140.5C150.769 137.042 160.723 134.81 170.862 133.5M138 140.5C133.25 143.639 129.901 145.475 121.5 148.471M80.5 112.5L81.5 122.5L93.6081 136.5M97.5 141L93.6081 136.5M93.6081 136.5C72.054 131.915 59.1654 131.053 35 132M203 132C190.382 131.838 180.538 132.25 170.862 133.5M72 133.5C65.2831 145.539 60.5169 151.872 48 163C35.1543 172.122 32.4216 173.535 29.5 174.855M15 196.5C20.2024 189.442 22.7732 184.849 27 176C27.967 175.535 28.7399 175.198 29.5 174.855M15 196.5C9.9618 198.062 8.54152 196.958 5.99998 195M15 196.5L11.5 205.5M170.862 133.5C178.419 146.444 183.972 152.875 196 163C203.832 168.477 206.76 171.058 211.5 175.5C221.299 183.542 223.635 188.404 228.5 197C232.406 198.224 234.365 197.953 237.5 196M116 150L118 211.5C114.78 220.856 112.062 225.378 103.5 230.5C91.1818 232.221 84.2766 233.106 72 232C62.981 230.702 58.0069 229.325 49.5 224M49.5 224C42.168 210.715 38.037 201.386 34.1931 190M49.5 224C71.4911 257.107 76.1964 268.185 77 280.5C78.4182 292.864 78.4789 299.156 77 309C82.6683 324.234 83.3066 330.068 84 340C84.5297 348.965 84.0689 353.434 82 360.5C77.7949 364.322 75.655 364.113 72 362C63.83 350.422 59.3404 345.583 51.5 340M29.5 174.855C31.1446 180.498 32.6456 185.416 34.1931 190M121.5 148.471L123.5 213C126.948 221.53 130.061 225.092 138 229C151.535 232.249 159.076 232.49 172.5 232C182.626 229.898 186.539 227.508 191 221.5C197.333 209.772 201.421 201.515 205.476 192M211.5 177C209.339 182.63 207.411 187.458 205.476 192M34.1931 190L44 236C44.099 250.948 42.9877 257.954 38.5 267.5C34.069 273.42 31.0167 275.96 24.5 279C14.8424 274.976 10.7334 270.922 4.99998 261.5M228.5 198L233 206.5M205.476 192L199.5 225.5M199.5 225.5C200.622 241.071 202.078 249.303 205.476 263.5C208.548 274.682 210.629 277.348 214.5 280.5C220.221 281.833 222.787 281.562 227 280.5C233.592 271.404 235.772 265.683 238.5 255M199.5 225.5C184.023 242.77 176.228 253.672 165.5 277.5C165.638 293.082 165.549 301.612 163.5 314.5C165.102 333.734 164.909 340.355 165.5 353C164.705 359.384 164.906 361.741 165.5 365.5C170.458 366.908 172.274 365.873 175.5 364C179.866 354.483 183.231 350.907 190 346M126.5 241V280.5C127.822 283.549 129.449 284.318 133 285L153 283.5C159.788 277.373 162.694 273.143 165.5 263.5C166.345 256.178 166.495 251.96 165.5 244C165.407 241.164 164.134 239.618 158 237L133 236C130.146 236.723 128.421 236.98 127.5 240M94 323C104.286 323.679 109.06 324.202 115 325.5C118.53 327.651 118.536 328.691 118 330.5C118 337.139 118 340.861 118 347.5C116.472 348.442 115.465 348.737 113.5 349L89.5 339C87.2123 335.02 86.6898 332.843 87 329C88.0618 324.91 89.3765 323.775 92.5 323M50 347.5C65.5066 354.167 72.2937 360.279 77 368.5C79.7757 375.834 80.3285 379.313 80.5 385M80.5 385C79.1123 396.188 78.0867 402.35 75.5 413M80.5 385L124.5 417L167.5 385C164.3 394.977 161.636 403.383 159.228 411.5M80.5 385L88.0083 411.5M75.5 413C73.0273 421.689 73.2524 427.165 69 437C67.7008 446.448 67.0089 453.511 62.5 466.5C61.403 477.101 60.4721 483.007 58.5 493.5M75.5 413C69.3448 448.937 69.0891 469.078 73.5 505C77.6513 522.443 80.3261 532.149 92 548C100.02 550.478 103.825 549.851 109.5 545.5C112.4 536.819 113.029 530.43 111.5 515L99 471C92.1667 448.201 89.9804 435.136 88.0083 411.5M193 354C182.281 355.354 177.421 360.258 170 373.5C167.609 383.263 168.525 388.737 170 398.5C170.784 403.454 171.504 407.627 172.318 411.5M190 483C189.234 474.004 189.726 470.701 187 458C184.292 449.319 182.543 443.96 179 433.5C175.728 425.064 173.855 418.815 172.318 411.5M122.5 521C111.642 498.574 106.517 485.076 100.5 458C97.7358 441.389 95.0247 431.954 89 415L88.0083 411.5M127 521C136.09 497.183 140.876 483.605 147.5 458C151.621 438.874 155.037 425.625 159.228 411.5M159.228 411.5C158.551 437.969 156.689 453.15 150 481C143.726 501.656 141.932 512.741 140.5 532C144.808 546.897 149.944 548.166 161 545.5C176.97 523.671 176.918 512.034 181 491C180.82 458.233 177.974 441.333 172.318 411.5M76.5 574.5C89.2193 580.889 93.1832 586.395 96.5 598.5C99.2174 622.177 98.9798 634.949 99.5 658L102 691C110.07 705.452 109.767 708.363 111.5 716C103.026 709.113 98.2264 704.79 89.5 695.5M171.5 576.5C162.944 581.445 159.409 586.161 155 597.5C151.854 618.53 150.841 630.592 151.5 653C150.263 672.752 149.708 683.671 147.5 704.5C147.134 709.584 146.488 712.426 145.5 717.5C152.211 713.226 154.817 709.58 158 701.5M127.5 551C131.701 571.559 134.653 581.451 140.5 597.5C145.31 628.114 145.07 644.92 145.5 675C139.365 685.277 135.437 690.68 128 700M120.5 551C117.245 570.05 114.839 580.755 107 600C104.351 627.928 103.05 643.669 103.5 673C109.013 684.235 113.223 689.949 121 700M239.5 300C236.767 290.664 235.068 286.904 231.5 285C225.355 282.035 222.06 281.917 216.5 285C211.298 292.977 210.525 297.108 209 304.5C208.608 320.352 207.856 329.552 209 344.5C215.144 368.362 216.527 377.17 219.5 394C225.435 398.046 227.919 397.579 231.5 394C241.506 365.547 243.969 346.178 239.5 302M86.5 82.5C92.6353 92.8489 95.9581 97.5807 101.5 102.5C116.216 108.38 122.447 106.881 132 100.5C141.112 92.6896 144.233 87.9373 150 79.5M84 237L111 236C115.879 236.857 117.687 237.811 118 241C118.469 256.895 118.263 265.337 118 280.5C116.625 283.73 114.812 284.412 111 285C100.259 284.576 94.8109 284.191 91 282C83.6645 274.2 81.2351 269.697 79 261.5C79 261.5 77.2564 244.635 79 241C80.7435 237.365 81.8552 236.657 84 237ZM89 288H115C116.767 288.672 117.753 290.277 119.5 295.5V317.5C118.572 321.158 117.424 321.772 115 322L95 319.5C90.1747 315.728 87.4853 313.551 84 304.5C81.45 299.334 81.7907 296.527 82 291.5C83.2746 288.152 84.7746 287.335 89 288ZM130 288L154 287.5C159.147 287.338 160.62 289.134 162 294L160.5 305.5C157.783 311.763 155.65 314.666 151.5 319.5L130 322C126.669 321.425 125.489 320.671 125.5 318V295.5C126.801 290.491 127.777 288.802 130 288ZM125.5 330.5L126.5 347.5C126.831 348.728 128.02 349.016 131.5 349L151.5 341.5C154.41 338.751 155.869 337.129 158 334C158.073 330.824 157.847 328.987 156.5 325.5C155.538 323.75 154.823 322.837 151.5 322L130 325.5C126.582 326.131 125.863 327.438 125.5 330.5ZM119.5 360.5V398.5C118.809 401.172 117.569 401.002 115 400L91 368.5C88.4423 360.846 88.032 356.576 89.5 349C90.6466 345.809 91.7718 345.616 94 346L115 353C118.706 355.661 119.388 357.344 119.5 360.5ZM124.5 359.5V398.5C124.768 399.985 125.617 400.548 128.5 401L153 368.5C154.79 362.514 155.475 358.75 155.5 350.5C155.664 348.189 155.075 347.111 151.5 346L127.5 353C126.353 353.658 125.695 355.092 124.5 359.5ZM6.49998 298C9.1363 287.64 11.1822 284.868 15.5 283.5C22.1085 279.655 25.5536 280.272 31.5 283.5C35.932 289.086 37.3904 292.584 39.5 299C42.7672 341.77 38.527 358.507 31.5 389C23.8404 393.694 20.5768 394.119 17.5 389C3.72226 348.517 2.21746 322.205 6.49998 298Z" stroke="black"/>
<path id="outer body" d="M92.5 11.5C85.7946 20.5166 83.6929 27.8602 82.5 44.5C75.3204 47.6018 73.956 51.5533 75 61.5C77.3642 69.6934 80.3087 71.6165 86.5 73.5V108.5L40.5 130C27.8364 135.011 20.292 136.885 11 149C4.26352 154.253 2.59303 160.262 1 173C3.18506 185.765 3.9966 192.987 11 205C8.36363 210.522 7.04377 213.888 5 220.5C3.13678 235.844 3.42153 244.783 5 261C8.53483 267.714 9.67973 271.426 11 278L5 298.5C2.28203 313.871 2.88558 322.685 5 338.5C6.37681 353.666 7.55851 362.101 13.5 376.5C13.3993 390.486 13.5854 397.713 11 418C11.4552 432.896 11.53 441.271 17 455.5L17.1344 455.725C20.6004 461.52 22.585 464.838 36.5 467C40.5357 467.321 41.7813 466.561 42 462.5L35.5 451.5V442.5C38.5326 443.512 39.6653 445.083 40.5 450C40.5 450 43.5 455.5 46.5 454C49.5 452.5 46.6325 451.79 44.5 444L42 432C41.8047 429.297 41.5202 425.491 40.5 412C39.8243 407.79 42.4058 411.061 35.5 395C33.7342 388.167 33.8548 384.333 35.5 377.5C38.348 357.031 40.789 346.59 41.5 323.5L40 291.5C41.7666 280.426 42.7673 274.278 44.5 263C44.6499 259.828 44.5541 248.97 44.5 235.5C49.9804 251.714 53.0968 260.588 56.5 287C57.697 302.035 57.8923 310.465 56.5 325.5C53.7909 331.706 52.3712 335.781 50 344C47.9519 359.041 48 382.5 48 382.5C48 382.5 46.5795 404.136 48 418C47.2006 433.062 48.3721 442.094 50.4155 457.848L50.5 458.5C52.3556 475.182 54.83 484.357 61 500.5C68.2104 523.039 71.7552 535.633 77 558L76 591C74.608 609.403 73.5711 619.578 74 639C75.805 653.41 77.215 661.422 84 675C88.2191 692.076 91.6809 701.965 97.5 719.5V747.5C96.8071 752.051 93.7886 755.078 85.5 761C85.4676 764.108 86.2575 765.635 89 768C101.644 767.442 109.54 768.353 121 766C122.222 759.773 121.202 754.889 121 747.5L119 722C121.965 716.628 122.486 712.81 122 705C121.757 699.427 121.354 695.872 120 688.5C120.116 675.847 119.616 668.566 123 657V634.5L122.93 632.758C122.354 618.417 122.011 609.858 120 594C118.735 578.902 120.253 570.522 121 555.5L123 520.5L125 418L127 500.5V552L128.5 576.5C129.803 587.646 129.997 594.029 130 605.5C129.586 613.129 129.02 617.742 127 627V641C127.29 653.473 127.104 660.45 129 673V696C126.838 701.897 126.083 705.772 127 715.5C130.097 723.048 131.391 727.312 132.5 735C130.554 743.058 129.424 747.613 125.5 757.5C124.554 762.441 125.523 764.772 130.5 768H160.5C163.154 766.37 164.938 765.596 164.5 762.5C159.832 754.771 157.321 750.079 153.5 739.5C153.421 730.319 153.685 725.081 155 715.5C157.525 703.302 158.113 696.607 163 684C165.608 662.808 169.624 653.017 175.5 634.5C175.582 619.074 175.69 610.426 175.5 595C174.665 587.061 173.407 582.011 170.5 572.5C169.516 564.55 169.478 560.077 172.5 552C178.753 533.412 181.899 522.739 186.5 503C189.716 487.586 190.904 478.579 193 462.5C196.36 440.958 198.324 428.95 199.5 405.5C198.443 385.77 198.787 374.702 193.5 355C190.691 346.241 189.395 341.88 185 330C186.585 307.634 186.086 295.201 192 272.5C192.414 254.668 195.321 244.211 199 225.5C197.968 244.602 198.974 254.394 204 270C203.89 283.667 203.65 291.486 202 306.5C202.067 316.603 203.296 322.113 205.471 331.868L205.5 332C211.859 354.133 214.705 366.595 217.5 389C216.288 397.718 214.322 402.365 210 410.5L201.5 450C201.451 452.507 202.547 453.427 207 454C210.101 451.916 211.243 448.874 212.5 441C214.739 445.754 215.607 448.537 215.5 454L209 461C207.629 464.352 208.133 466.105 211.5 469C218.922 468.995 222.747 467.886 229 464C235.409 456.184 238.066 451.171 238 439C237.836 431.815 235.5 417 235.5 417C235.5 417 235.178 406.303 234 398.5C235.182 395.101 235.568 393.051 235.5 389C239.438 375.337 241.172 367.443 241.5 352C242.884 339.074 243.587 331.788 241.5 317C241.367 307.854 240.944 302.552 239 292.5C238.722 287.272 237.92 284.45 236 279.5C238.178 270.419 238.795 265.033 239 255C239.599 242.696 239.199 235.797 237.5 223.5C236.811 217.467 236.051 213.985 234 207.5L237.5 196.5C240.417 185.933 241.548 179.506 240.5 165C237.67 157.423 235.7 153.208 228.5 146C219.622 139.006 214.084 135.987 203 132.5C192.973 124.038 186.978 119.585 172 115L151 108.5L149.5 73.5C157.974 71.682 160.811 68.4009 162 58C163.42 48.205 161.188 45.1836 154.5 42C154.678 29.9588 154.186 23.1338 145.5 10C137.578 3.6189 132.602 0.584221 117.5 1.50002C107.07 1.78818 101.371 2.75667 92.5 11.5Z" stroke="black"/>

<g class="hover" id="chest">
    <path id="left chest" d="M90 140.5L74.5 138.5C64.557 159.459 53.6979 165.88 34 177L53 222C70.2659 228.595 80.9889 229.519 102 226C109.021 221.792 110.838 218.093 112.5 210.5L111 151.5L90 140.5Z" fill="#D9D9D9" fill-opacity="0.40" stroke="black"/>

    <path id="right chest" d="M127.5 210V152.5C144.829 146.652 153.781 144.243 167.5 142.5C181.732 158.658 189.98 166.222 205 178L184.5 218.5C171.388 224.859 163.149 225.112 147.5 222C139.233 222.4 134.939 218.824 127.5 210Z" fill="#D9D9D9" fill-opacity="0.40" stroke="black"/>
</g>

<g class="hover" id="necks">

    <path id="neck" d="M89.5 122L88 89C93.2306 94.2854 96.1241 97.2509 102 102.5C116.202 106.836 122.764 106.258 132.5 101L148 85.5C148 85.5 147.926 110.045 147 117C146.074 123.955 142.578 129.259 138 138C131.265 143.096 126.149 144.508 117 147C111.004 144.75 107.86 143.819 99.5 138C95.2374 132.414 93.1037 128.808 89.5 122Z" fill="#D9D9D9" fill-opacity="0.40" stroke="black"/>

</g>

<path id="left trap" d="M36.5 131.5L86.5 108.5C86.694 119.379 88.1613 125.408 93 136C71.4653 132.142 59.0823 131.206 36.5 131.5Z" fill="#D9D9D9" fill-opacity="0.40" stroke="black"/>

<path id="right trap" d="M202 132C186.666 120.107 175.475 115.047 151.5 108.5C150.159 121.75 146.446 128.464 138 140C163.373 134.394 177.426 132.382 202 132Z" fill="#D9D9D9" fill-opacity="0.40" stroke="black"/>

<g class="hover" id="shoulder">
    <path id="left sholder" d="M13 149.5C20.7021 140.512 25.715 137.228 35.5 133.5C50.2348 133.319 57.754 133.563 69 135C56.7743 153.971 46.2548 162.641 24.5 176.5C20.7477 183.358 19.0651 187.218 13 194C12.4027 195.734 11.7316 196.221 7.00001 192C4.93 185.42 3.69508 181.783 4 173.5C3.65103 164.439 3.29015 159.372 13 149.5Z" fill="#D9D9D9" fill-opacity="0.40" stroke="black"/>

    <path id="right sholder" d="M201 134.5L174.5 135.5C188.709 155.394 197.888 163.146 215.5 173.5L231 195.5C232.415 195.596 233.946 195.108 237 194C237.858 184.17 238.46 178.944 238 166C234.906 160.043 239.383 160.531 224 147C218.027 142.043 216.133 139.227 201 134.5Z" fill="#D9D9D9" fill-opacity="0.40" stroke="black"/>
</g>

<g class="hover" id="arms">
    <path id="left biceps" d="M6.5 229C11.1058 209.401 14.2446 198.369 28.5 178C35.5668 200.102 37.8733 213.152 41.9714 236.338L42 236.5C42.2 246.086 41.7898 251.687 38 263C34.8526 269.554 32.254 272.907 24 277.5C16.3319 272.881 12.2136 269.811 6.5 260C5.53207 248.262 4.72798 241.781 6.5 229Z" fill="#D9D9D9" fill-opacity="0.40" stroke="black"/>

    <path id="right biceps" d="M232 210C226.675 197.159 221.996 190.503 212.5 179C207.58 195.831 205.143 206.847 201 227.5C203.446 253.278 206.608 266.887 216 277.5C219.94 279.25 221.839 278.956 225 277.5C233.276 268.001 235.103 262.315 237 252C237.298 234.283 235.829 225.306 232 210Z" fill="#D9D9D9" fill-opacity="0.40" stroke="black"/>
</g>

<g class="hover" id="stomach">
    <path id="abs" d="M81 279C76.9651 260.504 72.6496 250.034 57.5 231C65.8248 234.097 76.6815 235.206 122.5 234.5C155.045 235.888 174.684 236.629 193 227C178.542 242.061 171.521 252.442 163.5 279L161 310V368.5C148.371 382.349 138.663 393.541 122.5 412C106.499 397.465 97.7893 390.69 81 372C85.4428 362.219 86.1853 356.262 87 345.5C85.4877 332.384 84.9194 325.675 81 307C80.8293 296.714 80.6038 291.441 81 279Z" fill="#D9D9D9" fill-opacity="0.40" stroke="black"/>
</g>

<g class="hover" id="legs">
    <path id="left leg" d="M56 491.5C48.3675 433.83 42.1581 401.859 51.5 341C70.2766 355.53 79.4827 372.797 125 417C123.93 467.801 121.874 483.208 119 552.5L95 570L76 557C71.4655 531.574 67.9311 517.272 56 491.5Z" fill="#D9D9D9" fill-opacity="0.40" stroke="black"/>

    <path id="right leg" d="M190.5 346C159.564 368.345 144.744 383.23 125.5 416.5L127.5 552L150.5 567L171.5 556.5C181.433 526.092 185.587 508.953 190.5 478.5C197.331 427.226 201.752 398.519 190.5 346Z" fill="#D9D9D9" fill-opacity="0.40" stroke="black"/>
</g>
<path id="left calf" d="M96 578.5L77 564L74.5 614.5C72.5517 639.502 74.6121 652.498 83.5 674L96 719.5L111 730L118 721C122.131 713.205 122.409 708.321 120.5 699C119.771 681.544 119.626 671.85 123.5 656C120.919 618.134 118.986 597.246 120.5 556.5L96 578.5Z" fill="#D9D9D9" fill-opacity="0.40" stroke="black"/>

<path id="right calf" d="M146.5 571.5L127 556C131.531 589.455 130.84 607.47 127 639L129.5 681.5C126.704 696.137 125.807 704.346 128 719L143.5 725L155.5 712.5C162.667 685.462 175.161 630.746 175.5 630C177.037 626.616 174.88 582.628 170 561.5L146.5 571.5Z" fill="#D9D9D9" fill-opacity="0.40" stroke="black"/>

<path id="left forearm" d="M30.5 288C25.0309 282.238 21.1309 281.702 11 291C6.97786 305.696 6.08737 315.04 7 334C8.75349 353.957 9.88012 365.188 21.5 388C24.9334 390.33 26.908 389.37 30.5 384.5C34.7566 366.707 36.7438 356.05 38.5 334C38.1986 312.198 40.098 297.162 30.5 288Z" fill="#D9D9D9" fill-opacity="0.40" stroke="black"/>

<path id="right forearm" d="M233 291.5C224.663 281.26 220.92 285.069 214.5 294.5C212.005 301.436 210.431 303.543 211 341.5C216.585 365.128 220.287 386.221 224.5 391C224.719 393.302 226.225 392.519 231 388C234.661 379.022 245.86 327.899 233 291.5Z" fill="#D9D9D9" fill-opacity="0.40" stroke="black"/>
</svg>
